# xmcd
#
# Track frame offsets:
#	150
#	16100
#	30187
#	45580
#	63682
#	82075
#	100025
#	114935
#	129350
#	150150
#	164542
#	184755
#	199387
#	217635
#	236050
#	253982
#	268632
#	286090
#
# Disc length: 4002 seconds
#
# Revision: 0
# Processed by: cddbd v1.5.2PL0 Copyright (c) Steve Scherf et al.
# Submitted via: EasyCDDAExtractor 5.0.2.1
#
DISCID=e90fa012
DTITLE=Engelbert Humperdinck - 18 Of His Greatests Hits And Classic Songs
DYEAR=60
DGENRE=Ballad
TTITLE0=RELEASE ME
TTITLE1=THERE GOES MY EVERYTHING
TTITLE2=A MAN WITHOUT LOVE
TTITLE3=THEN YOU WALKED INTO MY LIFE
TTITLE4=AFTER THE LOVIN'
TTITLE5=PORTOFINO
TTITLE6=THE SPANISH NIGHT IS OVER 
TTITLE7=AM I THAT EASY TO FORGET?
TTITLE8=THE POWER OF LOVE 
TTITLE9=THE LAST WALTZ 
TTITLE10=MY HEART
TTITLE11=LES BICYCLETTES DE BELSIZE
TTITLE12=LOVE LIFE 
TTITLE13=GOODBYE MARIA 
TTITLE14=TORERO 
TTITLE15=DREAM OF ME 
TTITLE16=FOLLOW MY HEARTBEAT 
TTITLE17=THE WAY IT USED TO BE
EXTD=
EXTT0=
EXTT1=
EXTT2=
EXTT3=
EXTT4=
EXTT5=
EXTT6=
EXTT7=
EXTT8=
EXTT9=
EXTT10=
EXTT11=
EXTT12=
EXTT13=
EXTT14=
EXTT15=
EXTT16=
EXTT17=
PLAYORDER=
